<?xml version="1.0" encoding="UTF-8" standalone="no"?>
<svg width="86px" height="98px" viewBox="0 0 86 98" version="1.1" xmlns="http://www.w3.org/2000/svg" xmlns:xlink="http://www.w3.org/1999/xlink" xmlns:sketch="http://www.bohemiancoding.com/sketch/ns">
    <title>Untitled</title>
    <description>Created with Sketch (http://www.bohemiancoding.com/sketch)</description>
    <defs></defs>
    <g id="Page-1" stroke="none" stroke-width="1" fill="none" fill-rule="evenodd" sketch:type="MSPage">
        <g id="icon_4972" sketch:type="MSLayerGroup" transform="translate(43.000000, 42.000000) rotate(-180.000000) translate(-43.000000, -42.000000) translate(0.000000, -13.000000)" fill="#29ABE2">
            <path d="M35.934,43.508 L11.909,77.793 C8.85,82.846 7.011,89.564 10.98,95.962 L42.544,52.55 L35.934,43.508 L35.934,43.508 Z" id="Shape" sketch:type="MSShapeGroup"></path>
            <path d="M47.2,32.513 L43.319,35.562 L49.892,42.435 L50.084,42.174 C53.704,37.121 56.202,32.611 58.069,29.078 L53.667,25.999 C51.982,28.216 49.892,30.413 47.2,32.513 Z" id="Shape" sketch:type="MSShapeGroup"></path>
            <path d="M78.1,0.27 C71.91,-1.98 64.54,1.69 62.34,7.92 C60.03,13.08 58.53,19.43 53.981,25.6 L58.361,28.55 C61.001,23.55 62.421,20.65 64.201,21.16 C66.6,21.85 65.451,23.93 71.801,25.4 C77.891,26.8 84.131,21.74 85.421,15.63 C87.14,9.65 84.35,2.13 78.1,0.27 L78.1,0.27 Z M79.46,18.58 C74.19,23.9 64.86,20.66 64.88,13.56 C64.5,7.03 72.36,1.07 78.19,4.81 C83.1,7.42 83.07,14.94 79.46,18.58 L79.46,18.58 Z" id="Shape" sketch:type="MSShapeGroup"></path>
            <path d="M74.2,78.22 L49.71,43.1 L42.74,35.8 L39,32.87 C36.18,30.64 34,28.31 32.27,25.97 L27.94,29.01 C29.83,32.61 32.35,37.27 36.1,42.51 L43.12,52.22 L75.09,96.4 C79.07,90.01 77.25,83.28 74.2,78.22 L74.2,78.22 Z M43.2,44.94 C42.19,44.94 41.36,44.12 41.36,43.1 C41.36,42.09 42.19,41.26 43.2,41.26 C44.22,41.26 45.04,42.09 45.04,43.1 C45.04,44.12 44.22,44.94 43.2,44.94 L43.2,44.94 Z" id="Shape" sketch:type="MSShapeGroup"></path>
            <path d="M23.92,8.24 C21.73,2 14.37,-1.69 8.18,0.55 C1.93,2.4 -0.89,9.91 0.83,15.9 C2.1,22.01 8.33,27.09 14.43,25.69 C20.78,24.24 19.63,22.16 22.03,21.47 C23.78,20.98 25.15,23.71 27.66,28.49 L31.98,25.57 C27.64,19.5 26.18,13.29 23.92,8.24 L23.92,8.24 Z M21.38,13.87 C21.38,20.98 12.03,24.2 6.78,18.86 C3.18,15.22 3.16,7.69 8.08,5.09 C13.92,1.37 21.76,7.34 21.38,13.87 L21.38,13.87 Z" id="Shape" sketch:type="MSShapeGroup"></path>
        </g>
    </g>
</svg>